<svg width="212" height="68" viewBox="0 0 212 68" fill="none" xmlns="http://www.w3.org/2000/svg">
<g filter="url(#filter0_d_114_1272)">
<path d="M43.3619 22.2333C43.3327 23.2159 42.4542 23.9944 41.4841 24.1152C41.4841 24.1152 40.6723 24.3483 39.3607 23.1284C37.7203 21.717 35.8676 21.03 33.7067 21.03C28.8812 21.03 24.98 24.977 25.0466 29.815C25.1132 34.3949 28.7979 38.1712 33.3736 38.3419C36.4546 38.4543 39.1151 37.072 40.7389 34.7446C40.8638 34.5656 41.0428 34.2575 41.1344 34.0576C41.2218 33.8703 41.3301 33.6954 41.4633 33.5414C41.863 33.0751 42.4584 32.7795 43.1204 32.7795C44.3278 32.7795 45.3021 33.7579 45.3021 34.9611C45.3021 35.136 45.2979 35.3067 45.2438 35.4691C45.1439 35.773 45.0148 36.0353 44.8108 36.3434C44.6984 36.51 44.4402 36.843 44.332 37.0054C42.0212 40.4903 38.195 42.5929 33.7025 42.5929C26.5787 42.5929 20.804 36.8181 20.804 29.6901C20.804 22.5663 26.5787 16.7874 33.7025 16.7874C37.0042 16.7874 39.9062 17.9323 42.1878 19.9725C42.1878 19.9725 43.3993 20.8843 43.3619 22.2333Z" fill="url(#paint0_linear_114_1272)"/>
<path d="M35.268 0.0250169C51.0145 0.766123 63.4134 13.7605 63.4134 29.6942C63.4134 33.2041 62.8055 36.5682 61.6897 39.6908C61.6439 39.9365 61.5565 40.1655 61.4357 40.3736C61.0152 41.0939 60.1908 41.5478 59.2749 41.4228C58.284 41.2896 57.5054 40.4528 57.4304 39.4535C57.4096 39.1912 57.4388 38.9372 57.5095 38.6957C57.5387 38.5875 57.5762 38.4876 57.6261 38.3876C58.6129 35.673 59.15 32.7419 59.15 29.6901C59.15 16.0754 48.4622 4.96294 35.0182 4.27596L34.402 4.25098C33.3362 4.14689 32.6409 3.19345 32.6409 2.13592C32.6409 1.08255 33.3986 0.208212 34.3979 0.0250169C34.5228 0.0166899 34.6477 0.00835755 34.7726 3.05176e-05L35.268 0.0250169Z" fill="url(#paint1_linear_114_1272)"/>
<path d="M4 29.6942C4 46.1026 17.2983 59.4009 33.7067 59.4009C36.0591 59.4009 37.737 59.2635 39.9311 58.7472L40.8013 58.5432C41.3176 58.4225 41.7881 58.131 42.092 57.6939C42.3293 57.3483 42.4709 56.9278 42.4709 56.474C42.4709 55.6329 41.9879 54.896 41.2843 54.5462C40.8971 54.3506 40.4516 54.3048 40.0227 54.3755L39.7813 54.4172C39.6105 54.463 39.7313 54.4297 39.5564 54.4713C37.6787 54.9126 35.7218 55.1458 33.7108 55.1458C19.659 55.1458 8.26344 43.7544 8.26344 29.6984L8.40084 27.296C8.46745 26.1053 7.58479 25.0436 6.39402 24.9728C6.34822 24.9686 6.30659 24.9686 6.26079 24.9686C6.21083 24.9686 6.16503 24.9686 6.11923 24.9728C5.04088 25.0436 4.20817 25.9471 4.14989 27.0254L4 29.6942Z" fill="url(#paint2_linear_114_1272)"/>
<path d="M20.3293 17.6575C23.6143 14.0103 28.369 11.712 33.6567 11.6995C43.52 11.6745 51.6264 19.6976 51.6972 29.561C51.768 39.5576 43.6866 47.6848 33.7025 47.6848C27.3406 47.6848 21.749 44.3831 18.5514 39.3994C18.2225 38.8831 18.0185 38.4126 17.6771 37.7881C17.5938 37.6341 17.5189 37.48 17.4148 37.3426C17.0859 36.9138 16.5988 36.614 16.0408 36.5266H16.0367C15.9326 36.5099 15.8202 36.5016 15.7078 36.5016C15.6536 36.5016 15.5995 36.5016 15.5495 36.5099H15.5454C15.4996 36.5141 15.4538 36.5182 15.408 36.5266C14.0923 36.7098 13.3429 38.142 13.8633 39.3661L14.2214 40.2029C17.9602 47.1269 25.2838 51.8275 33.7025 51.8275C45.9807 51.8275 55.9232 41.8309 55.8357 29.5319C55.7483 17.4452 45.8516 7.59429 33.7608 7.56098C27.1158 7.54433 21.4201 10.5004 17.0942 14.9887C16.8069 15.2676 16.5779 15.5508 16.4239 15.863C16.2823 16.1503 16.2032 16.4751 16.2032 16.8165C16.2032 17.8698 16.961 18.7483 17.9644 18.9315C17.9686 18.9232 19.1177 19.1772 20.3293 17.6575Z" fill="url(#paint3_linear_114_1272)"/>
<path d="M48.9077 53.9092C48.9077 54.0466 48.8952 54.1757 48.8703 54.3047C48.8245 54.5504 48.737 54.7794 48.6163 54.9876C48.2416 55.6287 47.5504 56.0576 46.7552 56.0576C45.5686 56.0576 44.6068 55.0958 44.6068 53.9092C44.6068 53.7052 44.636 53.5054 44.6901 53.3138C44.7192 53.2056 44.7567 53.1057 44.8067 53.0057C45.1481 52.2688 45.8933 51.7608 46.7552 51.7608C47.9418 51.7608 48.9077 52.7226 48.9077 53.9092Z" fill="url(#paint4_linear_114_1272)"/>
<path d="M54.0164 50.3869C54.0164 50.5243 54.0039 50.6534 53.9789 50.7824C53.9331 51.0281 53.8457 51.2571 53.7249 51.4653C53.3502 52.1064 52.6591 52.5353 51.8638 52.5353C50.6772 52.5353 49.7155 51.5735 49.7155 50.3869C49.7155 50.1829 49.7446 49.983 49.7987 49.7915C49.8279 49.6833 49.8653 49.5833 49.9153 49.4834C50.2567 48.7465 51.002 48.2385 51.8638 48.2385C53.0546 48.2385 54.0164 49.2003 54.0164 50.3869Z" fill="url(#paint5_linear_114_1272)"/>
<path d="M9.68324 21.3172C9.68324 21.4546 9.67074 21.5837 9.64576 21.7128C9.59997 21.9584 9.51253 22.1874 9.39179 22.3956C9.01707 23.0368 8.32593 23.4656 7.5307 23.4656C6.3441 23.4656 5.38232 22.5038 5.38232 21.3172C5.38232 21.1132 5.41147 20.9134 5.46559 20.7218C5.49474 20.6136 5.53221 20.5137 5.58217 20.4137C5.92358 19.6768 6.66885 19.1689 7.5307 19.1689C8.72146 19.1689 9.68324 20.1306 9.68324 21.3172Z" fill="url(#paint6_linear_114_1272)"/>
<path d="M12.3853 15.3176C12.3853 15.455 12.3728 15.5841 12.3479 15.7132C12.3021 15.9588 12.2146 16.1878 12.0939 16.396C11.7192 17.0372 11.028 17.466 10.2328 17.466C9.04618 17.466 8.08441 16.5042 8.08441 15.3176C8.08441 15.1136 8.11356 14.9138 8.16768 14.7222C8.19683 14.614 8.2343 14.5141 8.28426 14.4141C8.62567 13.6772 9.37094 13.1693 10.2328 13.1693C11.4236 13.1693 12.3853 14.131 12.3853 15.3176Z" fill="url(#paint7_linear_114_1272)"/>
<path d="M14.6128 11.05C14.6128 11.1166 14.6044 11.1791 14.5961 11.2457C14.5753 11.3664 14.5336 11.4788 14.4712 11.5788C14.288 11.891 13.9508 12.1034 13.5635 12.1034C12.9848 12.1034 12.5143 11.6329 12.5143 11.0541C12.5143 10.9542 12.5268 10.8585 12.556 10.7627C12.5685 10.7127 12.5893 10.6586 12.6101 10.6128C12.7766 10.2548 13.1389 10.0049 13.5635 10.0049C14.1423 10.0008 14.6128 10.4713 14.6128 11.05Z" fill="url(#paint8_linear_114_1272)"/>
<path d="M79.8538 29.6727C79.8538 25.441 81.2665 21.9257 84.1511 19.1199C86.9831 16.3733 90.7351 15 95.4726 15C99.3363 15 103.147 16.3733 106.906 19.1725L103.206 25.1651C101.137 23.299 98.6858 22.3659 95.8603 22.3659C91.1227 22.3659 87.9687 25.3293 87.9687 29.6727C87.9687 34.016 91.1227 36.9794 95.8603 36.9794C98.6923 36.9794 101.143 36.0464 103.206 34.1803L106.906 40.1728C103.147 42.972 99.3428 44.3519 95.4726 44.3519C90.7351 44.3519 86.9831 42.9786 84.1511 40.1728C81.2731 37.4197 79.8538 33.9043 79.8538 29.6727Z" fill="url(#paint9_linear_114_1272)"/>
<path d="M109.534 29.6726C109.534 25.3885 111.059 21.8665 114.107 19.1199C117.104 16.3733 120.691 15 124.884 15C129.076 15 132.723 16.3733 135.719 19.1199C138.715 21.9191 140.24 25.441 140.24 29.6726C140.24 33.9568 138.715 37.4788 135.719 40.2254C132.723 43.0246 129.076 44.4044 124.884 44.4044C120.691 44.4044 117.097 43.0311 114.107 40.2254C111.059 37.4788 109.534 33.9634 109.534 29.6726ZM119.66 35.1724C121.132 36.6574 122.873 37.3736 124.884 37.3736C126.894 37.3736 128.695 36.6049 130.167 35.1198C131.638 33.6348 132.342 31.8213 132.342 29.6792C132.342 27.5371 131.632 25.7236 130.167 24.2386C128.695 22.7535 126.901 22.0439 124.884 22.0439C122.866 22.0439 121.125 22.7601 119.66 24.2386C118.188 25.7236 117.426 27.5371 117.426 29.6792C117.426 31.8739 118.188 33.6874 119.66 35.1724Z" fill="url(#paint10_linear_114_1272)"/>
<path d="M171.878 38.8455C168.56 42.5252 164.204 44.3979 158.868 44.3979C153.861 44.3979 149.938 43.0246 147.113 40.2188C144.281 37.4722 142.868 34.0094 142.868 29.8369C142.868 25.6579 144.34 22.1425 147.224 19.2842C150.109 16.4258 153.808 15 158.277 15C162.469 15 166.004 16.4258 169 19.2842C171.937 22.195 173.409 26.2624 173.409 31.5913H150.93C151.095 35.1658 154.413 37.689 159.479 37.689C162.252 37.689 164.867 36.5917 167.206 34.3379L171.878 38.8455ZM151.088 26.6435H165.077C164.585 23.3449 161.378 21.6431 158.165 21.6431C155.057 21.6431 151.955 23.1807 151.088 26.6435Z" fill="url(#paint11_linear_114_1272)"/>
<path d="M198.687 43.1954L191.992 34.3445L185.296 43.1954H176.038V42.0915L187.142 28.6279L177.076 15.9396V15H186.544L191.992 22.7536L197.432 15H206.907V15.9396L196.834 28.6279L207.939 42.0915V43.1954H198.687Z" fill="url(#paint12_linear_114_1272)"/>
</g>
<defs>
<filter id="filter0_d_114_1272" x="0" y="3.05176e-05" width="211.939" height="67.4009" filterUnits="userSpaceOnUse" color-interpolation-filters="sRGB">
<feFlood flood-opacity="0" result="BackgroundImageFix"/>
<feColorMatrix in="SourceAlpha" type="matrix" values="0 0 0 0 0 0 0 0 0 0 0 0 0 0 0 0 0 0 127 0" result="hardAlpha"/>
<feOffset dy="4"/>
<feGaussianBlur stdDeviation="2"/>
<feComposite in2="hardAlpha" operator="out"/>
<feColorMatrix type="matrix" values="0 0 0 0 0 0 0 0 0 0 0 0 0 0 0 0 0 0 0.25 0"/>
<feBlend mode="normal" in2="BackgroundImageFix" result="effect1_dropShadow_114_1272"/>
<feBlend mode="normal" in="SourceGraphic" in2="effect1_dropShadow_114_1272" result="shape"/>
</filter>
<linearGradient id="paint0_linear_114_1272" x1="33.053" y1="16.7874" x2="33.053" y2="42.5929" gradientUnits="userSpaceOnUse">
<stop stop-color="white"/>
<stop offset="1" stop-color="#FBFBFB" stop-opacity="0.81"/>
</linearGradient>
<linearGradient id="paint1_linear_114_1272" x1="48.0271" y1="3.05176e-05" x2="48.0271" y2="41.4435" gradientUnits="userSpaceOnUse">
<stop stop-color="white"/>
<stop offset="1" stop-color="#FBFBFB" stop-opacity="0.81"/>
</linearGradient>
<linearGradient id="paint2_linear_114_1272" x1="23.2354" y1="24.9686" x2="23.2354" y2="59.4009" gradientUnits="userSpaceOnUse">
<stop stop-color="white"/>
<stop offset="1" stop-color="#FBFBFB" stop-opacity="0.81"/>
</linearGradient>
<linearGradient id="paint3_linear_114_1272" x1="46.4923" y1="-3.18955" x2="6.80018" y2="7.14227" gradientUnits="userSpaceOnUse">
<stop stop-color="#FF7D75"/>
<stop offset="1" stop-color="#FF5149"/>
</linearGradient>
<linearGradient id="paint4_linear_114_1272" x1="47.954" y1="50.7173" x2="43.9299" y2="51.8188" gradientUnits="userSpaceOnUse">
<stop stop-color="#FF7D75"/>
<stop offset="1" stop-color="#FF5149"/>
</linearGradient>
<linearGradient id="paint5_linear_114_1272" x1="53.0627" y1="47.195" x2="49.0385" y2="48.2964" gradientUnits="userSpaceOnUse">
<stop stop-color="#FF7D75"/>
<stop offset="1" stop-color="#FF5149"/>
</linearGradient>
<linearGradient id="paint6_linear_114_1272" x1="8.72955" y1="18.1254" x2="4.70542" y2="19.2268" gradientUnits="userSpaceOnUse">
<stop stop-color="#FF7D75"/>
<stop offset="1" stop-color="#FF5149"/>
</linearGradient>
<linearGradient id="paint7_linear_114_1272" x1="11.4316" y1="12.1258" x2="7.4075" y2="13.2272" gradientUnits="userSpaceOnUse">
<stop stop-color="#FF7D75"/>
<stop offset="1" stop-color="#FF5149"/>
</linearGradient>
<linearGradient id="paint8_linear_114_1272" x1="14.1475" y1="9.49529" x2="12.1838" y2="10.0322" gradientUnits="userSpaceOnUse">
<stop stop-color="#FF7D75"/>
<stop offset="1" stop-color="#FF5149"/>
</linearGradient>
<linearGradient id="paint9_linear_114_1272" x1="93.3798" y1="15" x2="93.3798" y2="44.3519" gradientUnits="userSpaceOnUse">
<stop stop-color="white"/>
<stop offset="1" stop-color="#FBFBFB" stop-opacity="0.81"/>
</linearGradient>
<linearGradient id="paint10_linear_114_1272" x1="124.887" y1="15" x2="124.887" y2="44.4044" gradientUnits="userSpaceOnUse">
<stop stop-color="white"/>
<stop offset="1" stop-color="#FBFBFB" stop-opacity="0.81"/>
</linearGradient>
<linearGradient id="paint11_linear_114_1272" x1="158.139" y1="15" x2="158.139" y2="44.3979" gradientUnits="userSpaceOnUse">
<stop stop-color="white"/>
<stop offset="1" stop-color="#FBFBFB" stop-opacity="0.81"/>
</linearGradient>
<linearGradient id="paint12_linear_114_1272" x1="191.988" y1="15" x2="191.988" y2="43.1954" gradientUnits="userSpaceOnUse">
<stop stop-color="white"/>
<stop offset="1" stop-color="#FBFBFB" stop-opacity="0.81"/>
</linearGradient>
</defs>
</svg>
