<svg width="119" height="35" viewBox="0 0 119 35" fill="none" xmlns="http://www.w3.org/2000/svg">
<path d="M22.7957 12.876C22.7788 13.445 22.27 13.8959 21.7082 13.9658C21.7082 13.9658 21.238 14.1009 20.4785 13.3944C19.5285 12.577 18.4555 12.1791 17.2041 12.1791C14.4095 12.1791 12.1501 14.4649 12.1887 17.2668C12.2273 19.9191 14.3612 22.1061 17.0112 22.205C18.7955 22.2701 20.3362 21.4695 21.2766 20.1217C21.3489 20.018 21.4526 19.8396 21.5057 19.7238C21.5563 19.6153 21.619 19.514 21.6962 19.4248C21.9276 19.1548 22.2724 18.9836 22.6558 18.9836C23.3551 18.9836 23.9193 19.5502 23.9193 20.247C23.9193 20.3483 23.9169 20.4472 23.8855 20.5412C23.8277 20.7172 23.7529 20.8691 23.6348 21.0476C23.5697 21.144 23.4202 21.3369 23.3575 21.431C22.0193 23.4492 19.8034 24.6668 17.2016 24.6668C13.076 24.6668 9.73169 21.3225 9.73169 17.1944C9.73169 13.0689 13.076 9.72208 17.2016 9.72208C19.1137 9.72208 20.7944 10.3852 22.1157 11.5667C22.1157 11.5667 22.8174 12.0947 22.7957 12.876Z" fill="url(#paint0_linear_888_2529)"/>
<path d="M18.1083 0.0145009C27.2275 0.443698 34.4081 7.96911 34.4081 17.1969C34.4081 19.2295 34.0561 21.1778 33.4099 22.9862C33.3833 23.1285 33.3327 23.2611 33.2628 23.3816C33.0193 23.7988 32.5418 24.0616 32.0114 23.9893C31.4375 23.9121 30.9866 23.4274 30.9432 22.8488C30.9311 22.6968 30.948 22.5498 30.989 22.4099C31.0059 22.3472 31.0276 22.2893 31.0565 22.2315C31.628 20.6594 31.939 18.9619 31.939 17.1944C31.939 9.30975 25.7494 2.87421 17.9636 2.47635L17.6067 2.46189C16.9895 2.40161 16.5868 1.84944 16.5868 1.23699C16.5868 0.626949 17.0256 0.120595 17.6043 0.0145009C17.6767 0.00967849 17.749 0.00485296 17.8213 3.05176e-05L18.1083 0.0145009Z" fill="url(#paint1_linear_888_2529)"/>
<path d="M0 17.1968C0 26.6995 7.70144 34.4009 17.2041 34.4009C18.5664 34.4009 19.5381 34.3213 20.8088 34.0223L21.3128 33.9042C21.6118 33.8343 21.8842 33.6655 22.0602 33.4123C22.1977 33.2122 22.2797 32.9686 22.2797 32.7058C22.2797 32.2187 22 31.792 21.5925 31.5894C21.3682 31.4761 21.1102 31.4496 20.8619 31.4906L20.722 31.5147C20.6232 31.5412 20.6931 31.5219 20.5918 31.546C19.5044 31.8016 18.3711 31.9366 17.2065 31.9366C9.0686 31.9366 2.46909 25.3395 2.46909 17.1993L2.54866 15.808C2.58724 15.1184 2.07606 14.5035 1.38645 14.4625C1.35993 14.4601 1.33581 14.4601 1.30929 14.4601C1.28036 14.4601 1.25383 14.4601 1.22731 14.4625C0.602804 14.5035 0.12056 15.0268 0.0868031 15.6513L0 17.1968Z" fill="url(#paint2_linear_888_2529)"/>
<path d="M9.45684 10.226C11.3593 8.11377 14.1129 6.78278 17.1751 6.77555C22.8873 6.76108 27.582 11.4075 27.623 17.1197C27.664 22.909 22.9838 27.6157 17.2017 27.6157C13.5173 27.6157 10.2791 25.7036 8.42724 22.8174C8.23676 22.5184 8.11861 22.2459 7.92089 21.8843C7.87266 21.795 7.82926 21.7058 7.76898 21.6262C7.5785 21.3779 7.29638 21.2043 6.97328 21.1537H6.97087C6.91059 21.144 6.84548 21.1392 6.78038 21.1392C6.74904 21.1392 6.71769 21.1392 6.68875 21.144H6.68634C6.65982 21.1464 6.6333 21.1488 6.60677 21.1537C5.84483 21.2597 5.41081 22.0892 5.71221 22.7981L5.91958 23.2828C8.08485 27.2926 12.3262 30.0149 17.2017 30.0149C24.3124 30.0149 30.0704 24.2255 30.0197 17.1028C29.9691 10.103 24.2376 4.39808 17.2354 4.37879C13.3871 4.36915 10.0886 6.08111 7.58332 8.68041C7.41694 8.84196 7.28433 9.00593 7.19511 9.18677C7.11313 9.35314 7.06732 9.54121 7.06732 9.73893C7.06732 10.349 7.50616 10.8577 8.08726 10.9638C8.08967 10.959 8.75517 11.1061 9.45684 10.226Z" fill="url(#paint3_linear_888_2529)"/>
<path d="M26.0074 31.2205C26.0074 31.3001 26.0002 31.3748 25.9857 31.4496C25.9592 31.5918 25.9085 31.7245 25.8386 31.845C25.6216 32.2163 25.2213 32.4647 24.7608 32.4647C24.0736 32.4647 23.5166 31.9077 23.5166 31.2205C23.5166 31.1024 23.5335 30.9866 23.5648 30.8757C23.5817 30.813 23.6034 30.7551 23.6323 30.6973C23.8301 30.2705 24.2617 29.9763 24.7608 29.9763C25.448 29.9763 26.0074 30.5333 26.0074 31.2205Z" fill="url(#paint4_linear_888_2529)"/>
<path d="M28.966 29.1806C28.966 29.2602 28.9588 29.3349 28.9443 29.4097C28.9178 29.5519 28.8671 29.6845 28.7972 29.8051C28.5802 30.1764 28.1799 30.4248 27.7194 30.4248C27.0322 30.4248 26.4752 29.8678 26.4752 29.1806C26.4752 29.0624 26.4921 28.9467 26.5234 28.8358C26.5403 28.7731 26.562 28.7152 26.591 28.6574C26.7887 28.2306 27.2203 27.9364 27.7194 27.9364C28.409 27.9364 28.966 28.4934 28.966 29.1806Z" fill="url(#paint5_linear_888_2529)"/>
<path d="M3.29133 12.3455C3.29133 12.425 3.28409 12.4998 3.26963 12.5745C3.2431 12.7168 3.19247 12.8494 3.12254 12.97C2.90553 13.3413 2.50527 13.5897 2.04473 13.5897C1.35753 13.5897 0.800537 13.0327 0.800537 12.3455C0.800537 12.2273 0.817415 12.1116 0.848761 12.0007C0.865639 11.938 0.887341 11.8801 0.916276 11.8222C1.114 11.3955 1.5456 11.1013 2.04473 11.1013C2.73434 11.1013 3.29133 11.6583 3.29133 12.3455Z" fill="url(#paint6_linear_888_2529)"/>
<path d="M4.85627 8.8709C4.85627 8.95047 4.84904 9.02522 4.83457 9.09996C4.80804 9.24223 4.75741 9.37484 4.68748 9.4954C4.47047 9.86673 4.07021 10.1151 3.60967 10.1151C2.92247 10.1151 2.36548 9.5581 2.36548 8.8709C2.36548 8.75275 2.38236 8.63701 2.4137 8.52609C2.43058 8.4634 2.45228 8.40553 2.48122 8.34766C2.67894 7.92088 3.11055 7.62671 3.60967 7.62671C4.29928 7.62671 4.85627 8.1837 4.85627 8.8709Z" fill="url(#paint7_linear_888_2529)"/>
<path d="M6.14616 6.39936C6.14616 6.43794 6.14134 6.47411 6.13652 6.51269C6.12446 6.58262 6.10035 6.64772 6.06418 6.70559C5.95809 6.88643 5.76278 7.0094 5.53854 7.0094C5.20338 7.0094 4.93091 6.73693 4.93091 6.40177C4.93091 6.3439 4.93814 6.28845 4.95502 6.23299C4.96225 6.20405 4.97431 6.17271 4.98637 6.14618C5.08281 5.93882 5.29259 5.79414 5.53854 5.79414C5.8737 5.79173 6.14616 6.0642 6.14616 6.39936Z" fill="url(#paint8_linear_888_2529)"/>
<path d="M43.9292 17.1843C43.9292 14.7337 44.7474 12.6978 46.4179 11.0729C48.058 9.48227 50.2309 8.68695 52.9746 8.68695C55.2121 8.68695 57.4192 9.48227 59.5959 11.1034L57.4535 14.5739C56.2548 13.4931 54.8354 12.9528 53.1991 12.9528C50.4554 12.9528 48.6288 14.669 48.6288 17.1843C48.6288 19.6997 50.4554 21.4159 53.1991 21.4159C54.8392 21.4159 56.2586 20.8755 57.4535 19.7948L59.5959 23.2653C57.4192 24.8864 55.2159 25.6855 52.9746 25.6855C50.2309 25.6855 48.058 24.8902 46.4179 23.2653C44.7512 21.6709 43.9292 19.635 43.9292 17.1843Z" fill="url(#paint9_linear_888_2529)"/>
<path d="M61.118 17.1843C61.118 14.7032 62.0009 12.6636 63.7666 11.0729C65.5018 9.48227 67.5796 8.68695 70.0074 8.68695C72.4352 8.68695 74.5472 9.48227 76.2824 11.0729C78.0177 12.694 78.9005 14.7337 78.9005 17.1843C78.9005 19.6654 78.0177 21.7051 76.2824 23.2958C74.5472 24.9168 72.4352 25.716 70.0074 25.716C67.5796 25.716 65.498 24.9207 63.7666 23.2958C62.0009 21.7051 61.118 19.6692 61.118 17.1843ZM66.9821 20.3694C67.8345 21.2294 68.8429 21.6442 70.0074 21.6442C71.1718 21.6442 72.2145 21.199 73.0669 20.339C73.9193 19.479 74.3265 18.4287 74.3265 17.1881C74.3265 15.9476 73.9155 14.8973 73.0669 14.0373C72.2145 13.1773 71.1756 12.7663 70.0074 12.7663C68.8391 12.7663 67.8307 13.1811 66.9821 14.0373C66.1297 14.8973 65.6883 15.9476 65.6883 17.1881C65.6883 18.4591 66.1297 19.5094 66.9821 20.3694Z" fill="url(#paint10_linear_888_2529)"/>
<path d="M97.2234 22.4966C95.3017 24.6276 92.7788 25.7122 89.6888 25.7122C86.7891 25.7122 84.5173 24.9169 82.881 23.292C81.2409 21.7013 80.4227 19.6959 80.4227 17.2795C80.4227 14.8593 81.2751 12.8234 82.9457 11.1681C84.6162 9.51272 86.7587 8.68695 89.3463 8.68695C91.7741 8.68695 93.8214 9.51272 95.5567 11.1681C97.2577 12.8538 98.1101 15.2094 98.1101 18.2955H85.0919C85.187 20.3656 87.1088 21.8269 90.0427 21.8269C91.6486 21.8269 93.1631 21.1914 94.5178 19.8862L97.2234 22.4966ZM85.1832 15.4301H93.2849C92.9995 13.5198 91.1425 12.5342 89.2816 12.5342C87.4817 12.5342 85.6855 13.4246 85.1832 15.4301Z" fill="url(#paint11_linear_888_2529)"/>
<path d="M112.749 25.0158L108.872 19.89L104.994 25.0158H99.6322V24.3765L106.063 16.5793L100.233 9.23112V8.68695H105.717L108.872 13.1773L112.022 8.68695H117.51V9.23112L111.676 16.5793L118.107 24.3765V25.0158H112.749Z" fill="url(#paint12_linear_888_2529)"/>
<defs>
<linearGradient id="paint0_linear_888_2529" x1="16.8255" y1="9.72208" x2="16.8255" y2="24.6668" gradientUnits="userSpaceOnUse">
<stop stop-color="white"/>
<stop offset="1" stop-color="#FBFBFB" stop-opacity="0.81"/>
</linearGradient>
<linearGradient id="paint1_linear_888_2529" x1="25.4975" y1="3.05176e-05" x2="25.4975" y2="24.0012" gradientUnits="userSpaceOnUse">
<stop stop-color="white"/>
<stop offset="1" stop-color="#FBFBFB" stop-opacity="0.81"/>
</linearGradient>
<linearGradient id="paint2_linear_888_2529" x1="11.1398" y1="14.4601" x2="11.1398" y2="34.4009" gradientUnits="userSpaceOnUse">
<stop stop-color="white"/>
<stop offset="1" stop-color="#FBFBFB" stop-opacity="0.81"/>
</linearGradient>
<linearGradient id="paint3_linear_888_2529" x1="24.6087" y1="-1.84717" x2="1.62173" y2="4.13631" gradientUnits="userSpaceOnUse">
<stop stop-color="#FF7D75"/>
<stop offset="1" stop-color="#FF5149"/>
</linearGradient>
<linearGradient id="paint4_linear_888_2529" x1="25.4551" y1="29.372" x2="23.1246" y2="30.0099" gradientUnits="userSpaceOnUse">
<stop stop-color="#FF7D75"/>
<stop offset="1" stop-color="#FF5149"/>
</linearGradient>
<linearGradient id="paint5_linear_888_2529" x1="28.4137" y1="27.3321" x2="26.0832" y2="27.9699" gradientUnits="userSpaceOnUse">
<stop stop-color="#FF7D75"/>
<stop offset="1" stop-color="#FF5149"/>
</linearGradient>
<linearGradient id="paint6_linear_888_2529" x1="2.73902" y1="10.497" x2="0.408518" y2="11.1348" gradientUnits="userSpaceOnUse">
<stop stop-color="#FF7D75"/>
<stop offset="1" stop-color="#FF5149"/>
</linearGradient>
<linearGradient id="paint7_linear_888_2529" x1="4.30396" y1="7.02239" x2="1.97346" y2="7.66025" gradientUnits="userSpaceOnUse">
<stop stop-color="#FF7D75"/>
<stop offset="1" stop-color="#FF5149"/>
</linearGradient>
<linearGradient id="paint8_linear_888_2529" x1="5.87669" y1="5.49899" x2="4.73949" y2="5.80994" gradientUnits="userSpaceOnUse">
<stop stop-color="#FF7D75"/>
<stop offset="1" stop-color="#FF5149"/>
</linearGradient>
<linearGradient id="paint9_linear_888_2529" x1="51.7626" y1="8.68695" x2="51.7626" y2="25.6855" gradientUnits="userSpaceOnUse">
<stop stop-color="white"/>
<stop offset="1" stop-color="#FBFBFB" stop-opacity="0.81"/>
</linearGradient>
<linearGradient id="paint10_linear_888_2529" x1="70.0093" y1="8.68695" x2="70.0093" y2="25.716" gradientUnits="userSpaceOnUse">
<stop stop-color="white"/>
<stop offset="1" stop-color="#FBFBFB" stop-opacity="0.81"/>
</linearGradient>
<linearGradient id="paint11_linear_888_2529" x1="89.2664" y1="8.68695" x2="89.2664" y2="25.7122" gradientUnits="userSpaceOnUse">
<stop stop-color="white"/>
<stop offset="1" stop-color="#FBFBFB" stop-opacity="0.81"/>
</linearGradient>
<linearGradient id="paint12_linear_888_2529" x1="108.87" y1="8.68695" x2="108.87" y2="25.0158" gradientUnits="userSpaceOnUse">
<stop stop-color="white"/>
<stop offset="1" stop-color="#FBFBFB" stop-opacity="0.81"/>
</linearGradient>
</defs>
</svg>
