<svg width="26" height="18" viewBox="0 0 26 18" fill="#FFFFFF" xmlns="http://www.w3.org/2000/svg">
<path d="M0.1073 2.11711C0.1073 1.3347 0.741563 0.700439 1.52397 0.700439H24.1906C24.973 0.700439 25.6073 1.3347 25.6073 2.11711C25.6073 2.89951 24.973 3.53377 24.1906 3.53377H1.52397C0.741562 3.53377 0.1073 2.89951 0.1073 2.11711ZM0.1073 9.20044C0.1073 8.41804 0.741563 7.78377 1.52397 7.78377H24.1906C24.973 7.78377 25.6073 8.41804 25.6073 9.20044C25.6073 9.98284 24.973 10.6171 24.1906 10.6171H1.52397C0.741562 10.6171 0.1073 9.98284 0.1073 9.20044ZM0.1073 16.2838C0.1073 15.5014 0.741563 14.8671 1.52397 14.8671H24.1906C24.973 14.8671 25.6073 15.5014 25.6073 16.2838C25.6073 17.0662 24.973 17.7004 24.1906 17.7004H1.52397C0.741562 17.7004 0.1073 17.0662 0.1073 16.2838Z" fill="#FFDDDD"/>
</svg>
