<svg width="21" height="21" viewBox="0 0 21 21" fill="none" xmlns="http://www.w3.org/2000/svg">
<path d="M10.4389 0.513397C11.7898 0.513397 13.0854 1.05003 14.0406 2.00525C14.9958 2.96047 15.5324 4.25603 15.5324 5.60691C15.5324 6.9578 14.9958 8.25335 14.0406 9.20857C13.0854 10.1638 11.7898 10.7004 10.4389 10.7004C9.08804 10.7004 7.79248 10.1638 6.83726 9.20857C5.88204 8.25335 5.34541 6.9578 5.34541 5.60691C5.34541 4.25603 5.88204 2.96047 6.83726 2.00525C7.79248 1.05003 9.08804 0.513397 10.4389 0.513397ZM10.4389 13.2472C16.0673 13.2472 20.626 15.5265 20.626 18.3407V18.3407C20.626 19.7472 19.4857 20.8875 18.0792 20.8875H2.79865C1.39211 20.8875 0.251892 19.7472 0.251892 18.3407V18.3407C0.251892 15.5265 4.81059 13.2472 10.4389 13.2472Z" fill="url(#paint0_linear_319_294)"/>
<defs>
<linearGradient id="paint0_linear_319_294" x1="15.1338" y1="0.513394" x2="2.17272" y2="3.11837" gradientUnits="userSpaceOnUse">
<stop stop-color="#87B8FF"/>
<stop offset="1" stop-color="#4490F9"/>
</linearGradient>
</defs>
</svg>
