<svg width="60" height="60" viewBox="0 0 60 60" fill="none" xmlns="http://www.w3.org/2000/svg">
<path d="M39.3619 22.2333C39.3327 23.2159 38.4542 23.9944 37.4841 24.1152C37.4841 24.1152 36.6723 24.3483 35.3607 23.1284C33.7203 21.717 31.8676 21.03 29.7067 21.03C24.8812 21.03 20.98 24.977 21.0466 29.815C21.1132 34.3949 24.7979 38.1712 29.3736 38.3419C32.4546 38.4543 35.1151 37.072 36.7389 34.7446C36.8638 34.5656 37.0428 34.2575 37.1344 34.0576C37.2218 33.8703 37.3301 33.6954 37.4633 33.5414C37.863 33.0751 38.4584 32.7795 39.1204 32.7795C40.3278 32.7795 41.3021 33.7579 41.3021 34.9611C41.3021 35.136 41.2979 35.3067 41.2438 35.4691C41.1439 35.773 41.0148 36.0353 40.8108 36.3434C40.6984 36.51 40.4402 36.843 40.332 37.0054C38.0212 40.4903 34.195 42.5929 29.7025 42.5929C22.5787 42.5929 16.804 36.8181 16.804 29.6901C16.804 22.5663 22.5787 16.7874 29.7025 16.7874C33.0042 16.7874 35.9062 17.9323 38.1878 19.9725C38.1878 19.9725 39.3993 20.8843 39.3619 22.2333Z" fill="url(#paint0_linear_725_2613)"/>
<path d="M31.268 0.0250322C47.0145 0.766138 59.4134 13.7605 59.4134 29.6942C59.4134 33.2041 58.8055 36.5682 57.6897 39.6908C57.6439 39.9365 57.5565 40.1655 57.4357 40.3737C57.0152 41.0939 56.1908 41.5478 55.2749 41.4229C54.284 41.2896 53.5054 40.4528 53.4304 39.4535C53.4096 39.1912 53.4388 38.9372 53.5095 38.6958C53.5387 38.5875 53.5762 38.4876 53.6261 38.3877C54.6129 35.6731 55.15 32.7419 55.15 29.6901C55.15 16.0754 44.4622 4.96296 31.0182 4.27598L30.402 4.251C29.3362 4.14691 28.6409 3.19346 28.6409 2.13593C28.6409 1.08256 29.3986 0.208227 30.3979 0.0250322C30.5228 0.0167052 30.6477 0.00837281 30.7726 4.57764e-05L31.268 0.0250322Z" fill="url(#paint1_linear_725_2613)"/>
<path d="M0 29.6942C0 46.1026 13.2983 59.4009 29.7067 59.4009C32.0591 59.4009 33.737 59.2635 35.9311 58.7472L36.8013 58.5432C37.3176 58.4225 37.7881 58.131 38.092 57.6939C38.3293 57.3483 38.4709 56.9278 38.4709 56.474C38.4709 55.6329 37.9879 54.896 37.2843 54.5462C36.8971 54.3506 36.4516 54.3048 36.0227 54.3755L35.7813 54.4172C35.6105 54.463 35.7313 54.4297 35.5564 54.4713C33.6787 54.9126 31.7218 55.1458 29.7108 55.1458C15.659 55.1458 4.26344 43.7544 4.26344 29.6984L4.40084 27.296C4.46745 26.1053 3.58479 25.0436 2.39402 24.9728C2.34822 24.9686 2.30659 24.9686 2.26079 24.9686C2.21083 24.9686 2.16503 24.9686 2.11923 24.9728C1.04088 25.0436 0.208174 25.9471 0.149885 27.0254L0 29.6942Z" fill="url(#paint2_linear_725_2613)"/>
<path d="M16.3293 17.6575C19.6143 14.0103 24.3691 11.712 29.6567 11.6995C39.5201 11.6745 47.6265 19.6976 47.6973 29.561C47.768 39.5576 39.6866 47.6848 29.7025 47.6848C23.3407 47.6848 17.7491 44.3831 14.5515 39.3994C14.2226 38.8831 14.0186 38.4126 13.6772 37.7881C13.5939 37.6341 13.519 37.48 13.4149 37.3426C13.0859 36.9138 12.5988 36.614 12.0409 36.5266H12.0367C11.9327 36.5099 11.8202 36.5016 11.7078 36.5016C11.6537 36.5016 11.5996 36.5016 11.5496 36.5099H11.5454C11.4996 36.5141 11.4538 36.5182 11.4081 36.5266C10.0924 36.7098 9.34295 38.142 9.86339 39.3661L10.2214 40.2029C13.9603 47.1269 21.2839 51.8275 29.7025 51.8275C41.9807 51.8275 51.9232 41.8309 51.8358 29.5319C51.7484 17.4452 41.8517 7.59429 29.7608 7.56098C23.1159 7.54433 17.4202 10.5004 13.0943 14.9887C12.807 15.2676 12.578 15.5508 12.4239 15.863C12.2824 16.1503 12.2033 16.4751 12.2033 16.8165C12.2033 17.8698 12.961 18.7483 13.9645 18.9315C13.9686 18.9232 15.1177 19.1772 16.3293 17.6575Z" fill="url(#paint3_linear_725_2613)"/>
<path d="M44.9077 53.9092C44.9077 54.0466 44.8952 54.1757 44.8703 54.3048C44.8245 54.5504 44.737 54.7794 44.6163 54.9876C44.2416 55.6287 43.5504 56.0576 42.7552 56.0576C41.5686 56.0576 40.6068 55.0958 40.6068 53.9092C40.6068 53.7052 40.636 53.5054 40.6901 53.3138C40.7192 53.2056 40.7567 53.1057 40.8067 53.0057C41.1481 52.2688 41.8933 51.7608 42.7552 51.7608C43.9418 51.7608 44.9077 52.7226 44.9077 53.9092Z" fill="url(#paint4_linear_725_2613)"/>
<path d="M50.0164 50.3869C50.0164 50.5243 50.0039 50.6534 49.9789 50.7824C49.9331 51.0281 49.8457 51.2571 49.7249 51.4653C49.3502 52.1064 48.6591 52.5353 47.8638 52.5353C46.6772 52.5353 45.7155 51.5735 45.7155 50.3869C45.7155 50.1829 45.7446 49.983 45.7987 49.7915C45.8279 49.6833 45.8653 49.5833 45.9153 49.4834C46.2567 48.7465 47.002 48.2385 47.8638 48.2385C49.0546 48.2385 50.0164 49.2003 50.0164 50.3869Z" fill="url(#paint5_linear_725_2613)"/>
<path d="M5.68324 21.3172C5.68324 21.4546 5.67074 21.5837 5.64576 21.7128C5.59997 21.9584 5.51253 22.1874 5.39179 22.3956C5.01707 23.0368 4.32593 23.4656 3.5307 23.4656C2.3441 23.4656 1.38232 22.5038 1.38232 21.3172C1.38232 21.1132 1.41147 20.9134 1.46559 20.7218C1.49474 20.6136 1.53221 20.5137 1.58217 20.4137C1.92358 19.6768 2.66885 19.1689 3.5307 19.1689C4.72146 19.1689 5.68324 20.1306 5.68324 21.3172Z" fill="url(#paint6_linear_725_2613)"/>
<path d="M8.38539 15.3176C8.38539 15.455 8.37289 15.5841 8.34791 15.7132C8.30211 15.9588 8.21468 16.1878 8.09394 16.396C7.71922 17.0372 7.02808 17.466 6.23285 17.466C5.04624 17.466 4.08447 16.5042 4.08447 15.3176C4.08447 15.1136 4.11362 14.9138 4.16774 14.7222C4.19689 14.614 4.23436 14.5141 4.28432 14.4141C4.62573 13.6772 5.371 13.1693 6.23285 13.1693C7.42361 13.1693 8.38539 14.131 8.38539 15.3176Z" fill="url(#paint7_linear_725_2613)"/>
<path d="M10.6128 11.05C10.6128 11.1166 10.6045 11.1791 10.5962 11.2457C10.5753 11.3664 10.5337 11.4788 10.4713 11.5788C10.2881 11.891 9.95082 12.1034 9.56361 12.1034C8.98488 12.1034 8.5144 11.6329 8.5144 11.0541C8.5144 10.9542 8.5269 10.8585 8.55604 10.7627C8.56853 10.7127 8.58935 10.6586 8.61016 10.6128C8.77671 10.2548 9.13893 10.0049 9.56361 10.0049C10.1423 10.0008 10.6128 10.4713 10.6128 11.05Z" fill="url(#paint8_linear_725_2613)"/>
<defs>
<linearGradient id="paint0_linear_725_2613" x1="29.053" y1="16.7874" x2="29.053" y2="42.5929" gradientUnits="userSpaceOnUse">
<stop stop-color="white"/>
<stop offset="1" stop-color="#FBFBFB" stop-opacity="0.81"/>
</linearGradient>
<linearGradient id="paint1_linear_725_2613" x1="44.0271" y1="4.57764e-05" x2="44.0271" y2="41.4435" gradientUnits="userSpaceOnUse">
<stop stop-color="white"/>
<stop offset="1" stop-color="#FBFBFB" stop-opacity="0.81"/>
</linearGradient>
<linearGradient id="paint2_linear_725_2613" x1="19.2354" y1="24.9686" x2="19.2354" y2="59.4009" gradientUnits="userSpaceOnUse">
<stop stop-color="white"/>
<stop offset="1" stop-color="#FBFBFB" stop-opacity="0.81"/>
</linearGradient>
<linearGradient id="paint3_linear_725_2613" x1="42.4924" y1="-3.18955" x2="2.80024" y2="7.14227" gradientUnits="userSpaceOnUse">
<stop stop-color="#FF7D75"/>
<stop offset="1" stop-color="#FF5149"/>
</linearGradient>
<linearGradient id="paint4_linear_725_2613" x1="43.954" y1="50.7173" x2="39.9299" y2="51.8188" gradientUnits="userSpaceOnUse">
<stop stop-color="#FF7D75"/>
<stop offset="1" stop-color="#FF5149"/>
</linearGradient>
<linearGradient id="paint5_linear_725_2613" x1="49.0627" y1="47.195" x2="45.0385" y2="48.2964" gradientUnits="userSpaceOnUse">
<stop stop-color="#FF7D75"/>
<stop offset="1" stop-color="#FF5149"/>
</linearGradient>
<linearGradient id="paint6_linear_725_2613" x1="4.72955" y1="18.1254" x2="0.705415" y2="19.2268" gradientUnits="userSpaceOnUse">
<stop stop-color="#FF7D75"/>
<stop offset="1" stop-color="#FF5149"/>
</linearGradient>
<linearGradient id="paint7_linear_725_2613" x1="7.4317" y1="12.1258" x2="3.40756" y2="13.2272" gradientUnits="userSpaceOnUse">
<stop stop-color="#FF7D75"/>
<stop offset="1" stop-color="#FF5149"/>
</linearGradient>
<linearGradient id="paint8_linear_725_2613" x1="10.1475" y1="9.49529" x2="8.18387" y2="10.0322" gradientUnits="userSpaceOnUse">
<stop stop-color="#FF7D75"/>
<stop offset="1" stop-color="#FF5149"/>
</linearGradient>
</defs>
</svg>
