<svg width="20" height="20" viewBox="0 0 20 20" fill="none" xmlns="http://www.w3.org/2000/svg">
<path d="M8.58982 11.4101C8.99982 11.8001 8.99982 12.4401 8.58982 12.8301C8.19982 13.2201 7.55982 13.2201 7.16982 12.8301C5.21982 10.8801 5.21982 7.71007 7.16982 5.76007L10.7098 2.22007C12.6598 0.270068 15.8298 0.270068 17.7798 2.22007C19.7298 4.17007 19.7298 7.34007 17.7798 9.29007L16.2898 10.7801C16.2998 9.96007 16.1698 9.14007 15.8898 8.36007L16.3598 7.88007C17.5398 6.71007 17.5398 4.81007 16.3598 3.64007C15.1898 2.46007 13.2898 2.46007 12.1198 3.64007L8.58982 7.17007C7.40982 8.34007 7.40982 10.2401 8.58982 11.4101ZM11.4098 7.17007C11.7998 6.78007 12.4398 6.78007 12.8298 7.17007C14.7798 9.12007 14.7798 12.2901 12.8298 14.2401L9.28982 17.7801C7.33982 19.7301 4.16982 19.7301 2.21982 17.7801C0.269824 15.8301 0.269824 12.6601 2.21982 10.7101L3.70982 9.22007C3.69982 10.0401 3.82982 10.8601 4.10982 11.6501L3.63982 12.1201C2.45982 13.2901 2.45982 15.1901 3.63982 16.3601C4.80982 17.5401 6.70982 17.5401 7.87982 16.3601L11.4098 12.8301C12.5898 11.6601 12.5898 9.76007 11.4098 8.59007C10.9998 8.20007 10.9998 7.56007 11.4098 7.17007Z" fill="#BABABA"/>
</svg>
