<svg width="204" height="60" viewBox="0 0 204 60" fill="none" xmlns="http://www.w3.org/2000/svg">
<path d="M39.3619 22.5328C39.3327 23.5154 38.4542 24.294 37.4841 24.4147C37.4841 24.4147 36.6723 24.6479 35.3607 23.4279C33.7203 22.0165 31.8676 21.3295 29.7067 21.3295C24.8812 21.3295 20.98 25.2765 21.0466 30.1146C21.1132 34.6944 24.7979 38.4707 29.3736 38.6414C32.4546 38.7539 35.1151 37.3716 36.7389 35.0442C36.8638 34.8651 37.0428 34.557 37.1344 34.3572C37.2218 34.1698 37.3301 33.995 37.4633 33.8409C37.863 33.3746 38.4584 33.079 39.1204 33.079C40.3278 33.079 41.3021 34.0574 41.3021 35.2607C41.3021 35.4355 41.2979 35.6062 41.2438 35.7686C41.1439 36.0725 41.0148 36.3348 40.8108 36.6429C40.6984 36.8095 40.4402 37.1426 40.332 37.3049C38.0212 40.7898 34.195 42.8924 29.7025 42.8924C22.5787 42.8924 16.804 37.1176 16.804 29.9897C16.804 22.8659 22.5787 17.0869 29.7025 17.0869C33.0042 17.0869 35.9062 18.2319 38.1878 20.272C38.1878 20.272 39.3993 21.1838 39.3619 22.5328Z" fill="url(#paint0_linear_501_1714)"/>
<path d="M31.268 0.324547C47.0145 1.06565 59.4134 14.06 59.4134 29.9938C59.4134 33.5036 58.8055 36.8677 57.6897 39.9904C57.6439 40.236 57.5565 40.465 57.4357 40.6732C57.0152 41.3935 56.1908 41.8473 55.2749 41.7224C54.284 41.5891 53.5054 40.7523 53.4304 39.753C53.4096 39.4907 53.4388 39.2368 53.5095 38.9953C53.5387 38.887 53.5762 38.7871 53.6261 38.6872C54.6129 35.9726 55.15 33.0415 55.15 29.9896C55.15 16.3749 44.4622 5.26247 31.0182 4.57549L30.402 4.55051C29.3362 4.44642 28.6409 3.49298 28.6409 2.43545C28.6409 1.38208 29.3986 0.507742 30.3979 0.324547C30.5228 0.31622 30.6477 0.307888 30.7726 0.299561L31.268 0.324547Z" fill="url(#paint1_linear_501_1714)"/>
<path d="M0 29.9939C0 46.4023 13.2983 59.7006 29.7067 59.7006C32.0591 59.7006 33.737 59.5632 35.9311 59.0469L36.8013 58.8429C37.3176 58.7222 37.7881 58.4307 38.092 57.9935C38.3293 57.648 38.4709 57.2275 38.4709 56.7736C38.4709 55.9326 37.9879 55.1957 37.2843 54.8459C36.8971 54.6502 36.4516 54.6044 36.0227 54.6752L35.7813 54.7169C35.6105 54.7627 35.7313 54.7293 35.5564 54.771C33.6787 55.2123 31.7218 55.4455 29.7108 55.4455C15.659 55.4455 4.26344 44.0541 4.26344 29.9981L4.40084 27.5957C4.46745 26.405 3.58479 25.3433 2.39402 25.2725C2.34822 25.2683 2.30659 25.2683 2.26079 25.2683C2.21083 25.2683 2.16503 25.2683 2.11923 25.2725C1.04088 25.3433 0.208174 26.2467 0.149885 27.3251L0 29.9939Z" fill="url(#paint2_linear_501_1714)"/>
<path d="M16.3293 17.9569C19.6143 14.3097 24.369 12.0114 29.6567 11.999C39.52 11.974 47.6264 19.9971 47.6972 29.8604C47.768 39.857 39.6866 47.9842 29.7025 47.9842C23.3406 47.9842 17.749 44.6826 14.5514 39.6988C14.2225 39.1826 14.0185 38.7121 13.6771 38.0875C13.5938 37.9335 13.5189 37.7794 13.4148 37.642C13.0859 37.2132 12.5988 36.9134 12.0408 36.826H12.0367C11.9326 36.8094 11.8202 36.801 11.7078 36.801C11.6536 36.801 11.5995 36.801 11.5495 36.8093H11.5454C11.4996 36.8135 11.4538 36.8177 11.408 36.826C10.0923 37.0092 9.34289 38.4414 9.86333 39.6655L10.2214 40.5024C13.9602 47.4263 21.2838 52.1269 29.7025 52.1269C41.9807 52.1269 51.9232 42.1303 51.8357 29.8313C51.7483 17.7446 41.8516 7.89373 29.7608 7.86042C23.1158 7.84377 17.4201 10.7999 13.0942 15.2881C12.8069 15.5671 12.5779 15.8502 12.4239 16.1625C12.2823 16.4498 12.2032 16.7745 12.2032 17.1159C12.2032 18.1693 12.961 19.0478 13.9644 19.231C13.9686 19.2227 15.1177 19.4766 16.3293 17.9569Z" fill="url(#paint3_linear_501_1714)"/>
<path d="M44.9077 54.2087C44.9077 54.3461 44.8952 54.4751 44.8703 54.6042C44.8245 54.8499 44.737 55.0789 44.6163 55.287C44.2416 55.9282 43.5504 56.3571 42.7552 56.3571C41.5686 56.3571 40.6068 55.3953 40.6068 54.2087C40.6068 54.0047 40.636 53.8048 40.6901 53.6133C40.7192 53.505 40.7567 53.4051 40.8067 53.3052C41.1481 52.5683 41.8933 52.0603 42.7552 52.0603C43.9418 52.0603 44.9077 53.0221 44.9077 54.2087Z" fill="url(#paint4_linear_501_1714)"/>
<path d="M50.0164 50.6865C50.0164 50.8239 50.0039 50.9529 49.9789 51.082C49.9331 51.3276 49.8457 51.5566 49.7249 51.7648C49.3502 52.406 48.6591 52.8348 47.8638 52.8348C46.6772 52.8348 45.7155 51.8731 45.7155 50.6865C45.7155 50.4824 45.7446 50.2826 45.7987 50.0911C45.8279 49.9828 45.8653 49.8829 45.9153 49.783C46.2567 49.046 47.002 48.5381 47.8638 48.5381C49.0546 48.5381 50.0164 49.4999 50.0164 50.6865Z" fill="url(#paint5_linear_501_1714)"/>
<path d="M5.68324 21.6169C5.68324 21.7543 5.67074 21.8833 5.64576 22.0124C5.59997 22.2581 5.51253 22.4871 5.39179 22.6952C5.01707 23.3364 4.32593 23.7653 3.5307 23.7653C2.3441 23.7653 1.38232 22.8035 1.38232 21.6169C1.38232 21.4129 1.41147 21.213 1.46559 21.0215C1.49474 20.9132 1.53221 20.8133 1.58217 20.7134C1.92358 19.9765 2.66885 19.4685 3.5307 19.4685C4.72146 19.4685 5.68324 20.4303 5.68324 21.6169Z" fill="url(#paint6_linear_501_1714)"/>
<path d="M8.38532 15.6171C8.38532 15.7545 8.37283 15.8836 8.34785 16.0127C8.30205 16.2583 8.21462 16.4873 8.09388 16.6955C7.71916 17.3367 7.02802 17.7655 6.23279 17.7655C5.04618 17.7655 4.08441 16.8037 4.08441 15.6171C4.08441 15.4131 4.11356 15.2133 4.16768 15.0217C4.19683 14.9135 4.2343 14.8136 4.28426 14.7136C4.62567 13.9767 5.37094 13.4688 6.23279 13.4688C7.42355 13.4688 8.38532 14.4305 8.38532 15.6171Z" fill="url(#paint7_linear_501_1714)"/>
<path d="M10.6128 11.3495C10.6128 11.4161 10.6044 11.4786 10.5961 11.5452C10.5753 11.6659 10.5336 11.7784 10.4712 11.8783C10.288 12.1905 9.95076 12.4029 9.56355 12.4029C8.98482 12.4029 8.51434 11.9324 8.51434 11.3537C8.51434 11.2538 8.52683 11.158 8.55598 11.0622C8.56847 11.0123 8.58929 10.9581 8.6101 10.9123C8.77664 10.5543 9.13887 10.3045 9.56355 10.3045C10.1423 10.3003 10.6128 10.7708 10.6128 11.3495Z" fill="url(#paint8_linear_501_1714)"/>
<path d="M75.8538 29.9722C75.8538 25.7406 77.2665 22.2252 80.1511 19.4195C82.9831 16.6729 86.7351 15.2996 91.4726 15.2996C95.3363 15.2996 99.1473 16.6729 102.906 19.472L99.2065 25.4646C97.1367 23.5985 94.6858 22.6655 91.8603 22.6655C87.1227 22.6655 83.9687 25.6289 83.9687 29.9722C83.9687 34.3155 87.1227 37.279 91.8603 37.279C94.6923 37.279 97.1432 36.3459 99.2065 34.4798L102.906 40.4724C99.1473 43.2716 95.3428 44.6515 91.4726 44.6515C86.7351 44.6515 82.9831 43.2781 80.1511 40.4724C77.2731 37.7192 75.8538 34.2038 75.8538 29.9722Z" fill="url(#paint9_linear_501_1714)"/>
<path d="M105.534 29.9722C105.534 25.688 107.059 22.1661 110.107 19.4195C113.104 16.6729 116.691 15.2996 120.884 15.2996C125.076 15.2996 128.723 16.6729 131.719 19.4195C134.715 22.2186 136.24 25.7406 136.24 29.9722C136.24 34.2564 134.715 37.7784 131.719 40.525C128.723 43.3241 125.076 44.704 120.884 44.704C116.691 44.704 113.097 43.3307 110.107 40.525C107.059 37.7784 105.534 34.263 105.534 29.9722ZM115.66 35.472C117.132 36.957 118.873 37.6732 120.884 37.6732C122.894 37.6732 124.695 36.9044 126.167 35.4194C127.638 33.9344 128.342 32.1209 128.342 29.9788C128.342 27.8367 127.632 26.0232 126.167 24.5381C124.695 23.0531 122.901 22.3435 120.884 22.3435C118.866 22.3435 117.125 23.0597 115.66 24.5381C114.188 26.0232 113.426 27.8367 113.426 29.9788C113.426 32.1734 114.188 33.987 115.66 35.472Z" fill="url(#paint10_linear_501_1714)"/>
<path d="M167.878 39.1451C164.56 42.8248 160.204 44.6975 154.868 44.6975C149.861 44.6975 145.938 43.3242 143.113 40.5184C140.281 37.7718 138.868 34.309 138.868 30.1365C138.868 25.9574 140.34 22.4421 143.224 19.5837C146.109 16.7254 149.808 15.2996 154.277 15.2996C158.469 15.2996 162.004 16.7254 165 19.5837C167.937 22.4946 169.409 26.562 169.409 31.8909H146.93C147.095 35.4654 150.413 37.9886 155.479 37.9886C158.252 37.9886 160.867 36.8913 163.206 34.6375L167.878 39.1451ZM147.088 26.9431H161.077C160.585 23.6445 157.378 21.9427 154.165 21.9427C151.057 21.9427 147.955 23.4802 147.088 26.9431Z" fill="url(#paint11_linear_501_1714)"/>
<path d="M194.687 43.495L187.992 34.6441L181.296 43.495H172.038V42.3911L183.142 28.9275L173.076 16.2392V15.2996H182.544L187.992 23.0531L193.432 15.2996H202.907V16.2392L192.834 28.9275L203.939 42.3911V43.495H194.687Z" fill="url(#paint12_linear_501_1714)"/>
<defs>
<linearGradient id="paint0_linear_501_1714" x1="29.053" y1="17.0869" x2="29.053" y2="42.8924" gradientUnits="userSpaceOnUse">
<stop stop-color="white"/>
<stop offset="1" stop-color="#FBFBFB" stop-opacity="0.81"/>
</linearGradient>
<linearGradient id="paint1_linear_501_1714" x1="44.0271" y1="0.299561" x2="44.0271" y2="41.743" gradientUnits="userSpaceOnUse">
<stop stop-color="white"/>
<stop offset="1" stop-color="#FBFBFB" stop-opacity="0.81"/>
</linearGradient>
<linearGradient id="paint2_linear_501_1714" x1="19.2354" y1="25.2683" x2="19.2354" y2="59.7006" gradientUnits="userSpaceOnUse">
<stop stop-color="white"/>
<stop offset="1" stop-color="#FBFBFB" stop-opacity="0.81"/>
</linearGradient>
<linearGradient id="paint3_linear_501_1714" x1="42.4923" y1="-2.89011" x2="2.80018" y2="7.44171" gradientUnits="userSpaceOnUse">
<stop stop-color="#FF7D75"/>
<stop offset="1" stop-color="#FF5149"/>
</linearGradient>
<linearGradient id="paint4_linear_501_1714" x1="43.954" y1="51.0168" x2="39.9299" y2="52.1182" gradientUnits="userSpaceOnUse">
<stop stop-color="#FF7D75"/>
<stop offset="1" stop-color="#FF5149"/>
</linearGradient>
<linearGradient id="paint5_linear_501_1714" x1="49.0627" y1="47.4946" x2="45.0385" y2="48.596" gradientUnits="userSpaceOnUse">
<stop stop-color="#FF7D75"/>
<stop offset="1" stop-color="#FF5149"/>
</linearGradient>
<linearGradient id="paint6_linear_501_1714" x1="4.72955" y1="18.425" x2="0.705415" y2="19.5264" gradientUnits="userSpaceOnUse">
<stop stop-color="#FF7D75"/>
<stop offset="1" stop-color="#FF5149"/>
</linearGradient>
<linearGradient id="paint7_linear_501_1714" x1="7.43164" y1="12.4253" x2="3.4075" y2="13.5267" gradientUnits="userSpaceOnUse">
<stop stop-color="#FF7D75"/>
<stop offset="1" stop-color="#FF5149"/>
</linearGradient>
<linearGradient id="paint8_linear_501_1714" x1="10.1475" y1="9.79482" x2="8.18381" y2="10.3317" gradientUnits="userSpaceOnUse">
<stop stop-color="#FF7D75"/>
<stop offset="1" stop-color="#FF5149"/>
</linearGradient>
<linearGradient id="paint9_linear_501_1714" x1="89.3798" y1="15.2996" x2="89.3798" y2="44.6515" gradientUnits="userSpaceOnUse">
<stop stop-color="white"/>
<stop offset="1" stop-color="#FBFBFB" stop-opacity="0.81"/>
</linearGradient>
<linearGradient id="paint10_linear_501_1714" x1="120.887" y1="15.2996" x2="120.887" y2="44.704" gradientUnits="userSpaceOnUse">
<stop stop-color="white"/>
<stop offset="1" stop-color="#FBFBFB" stop-opacity="0.81"/>
</linearGradient>
<linearGradient id="paint11_linear_501_1714" x1="154.139" y1="15.2996" x2="154.139" y2="44.6975" gradientUnits="userSpaceOnUse">
<stop stop-color="white"/>
<stop offset="1" stop-color="#FBFBFB" stop-opacity="0.81"/>
</linearGradient>
<linearGradient id="paint12_linear_501_1714" x1="187.988" y1="15.2996" x2="187.988" y2="43.495" gradientUnits="userSpaceOnUse">
<stop stop-color="white"/>
<stop offset="1" stop-color="#FBFBFB" stop-opacity="0.81"/>
</linearGradient>
</defs>
</svg>
