<svg width="40" height="40" viewBox="0 0 40 40" fill="none" xmlns="http://www.w3.org/2000/svg">
<path fill-rule="evenodd" clip-rule="evenodd" d="M0.786133 20.0001C0.786133 12.2957 0.786133 8.44353 2.62202 5.66892C3.44183 4.42992 4.50292 3.36883 5.74192 2.54902C8.51653 0.713135 12.3687 0.713135 20.0731 0.713135C27.7774 0.713135 31.6296 0.713135 34.4042 2.54902C35.6432 3.36883 36.7043 4.42992 37.5241 5.66892C39.36 8.44353 39.36 12.2957 39.36 20.0001C39.36 27.7044 39.36 31.5566 37.5241 34.3312C36.7043 35.5702 35.6432 36.6313 34.4042 37.4511C31.6296 39.287 27.7774 39.287 20.0731 39.287C12.3687 39.287 8.51653 39.287 5.74192 37.4511C4.50292 36.6313 3.44183 35.5702 2.62202 34.3312C0.786133 31.5566 0.786133 27.7044 0.786133 20.0001ZM30.0579 20.0007C30.0579 25.5153 25.5874 29.9857 20.0728 29.9857C14.5582 29.9857 10.0878 25.5153 10.0878 20.0007C10.0878 14.4861 14.5582 10.0156 20.0728 10.0156C25.5874 10.0156 30.0579 14.4861 30.0579 20.0007ZM20.0728 26.6075C23.7217 26.6075 26.6797 23.6495 26.6797 20.0007C26.6797 16.3518 23.7217 13.3938 20.0728 13.3938C16.424 13.3938 13.466 16.3518 13.466 20.0007C13.466 23.6495 16.424 26.6075 20.0728 26.6075ZM30.4522 11.8603C31.7479 11.8603 32.7984 10.8099 32.7984 9.51414C32.7984 8.21837 31.7479 7.16794 30.4522 7.16794C29.1564 7.16794 28.106 8.21837 28.106 9.51414C28.106 10.8099 29.1564 11.8603 30.4522 11.8603Z" fill="white"/>
</svg>
