<svg width="44" height="36" viewBox="0 0 44 36" fill="none" xmlns="http://www.w3.org/2000/svg">
<path d="M42.5726 0.922674C40.826 1.74773 37.8537 3.29497 36.36 3.5907C36.3022 3.6057 36.255 3.62499 36.1993 3.63999C34.457 1.92131 32.0697 0.856241 29.4274 0.856241C24.1021 0.856241 19.784 5.17437 19.784 10.4997C19.784 10.7804 19.7604 11.2969 19.784 11.5712C12.8878 11.5712 7.85178 7.97312 4.08226 3.34854C3.57866 2.72707 3.04291 3.05067 2.93147 3.49212C2.68074 4.49076 2.59502 6.16015 2.59502 7.35165C2.59502 10.354 4.9416 13.3027 8.5954 15.1307C7.9225 15.3043 7.18103 15.4286 6.40955 15.4286C5.50092 15.4286 4.45514 15.1907 3.54008 14.7107C3.20149 14.5328 2.47073 14.5821 2.68717 15.4479C3.55508 18.9174 7.51533 21.354 11.0534 22.0633C10.2498 22.5369 8.5354 22.4405 7.74678 22.4405C7.45533 22.4405 6.44169 22.3719 5.78594 22.2905C5.18804 22.2176 4.2687 22.3719 5.03803 23.5377C6.69028 26.0385 10.4277 27.6094 13.6443 27.6694C10.6827 29.9924 5.83951 30.841 1.19993 30.841C0.261304 30.8196 0.30845 31.8889 1.06493 32.2854C4.48729 34.0812 10.0934 35.1441 14.0986 35.1441C30.021 35.1441 39.0709 23.0084 39.0709 11.5691C39.0709 11.3848 39.0666 10.999 39.0602 10.6111C39.0602 10.5726 39.0709 10.5361 39.0709 10.4976C39.0709 10.4397 39.0538 10.384 39.0538 10.3261C39.0473 10.0347 39.0409 9.76252 39.0345 9.62108C40.2967 8.71031 42.2297 7.12878 43.2069 5.91799C43.539 5.50653 43.2712 5.00722 42.819 5.16366C41.6554 5.56868 39.6431 6.35302 38.383 6.50303C40.9053 4.83364 42.1525 3.38069 43.224 1.76701C43.5905 1.21626 43.1319 0.656943 42.5726 0.922674Z" fill="white"/>
</svg>
