<svg width="44" height="30" viewBox="0 0 44 30" fill="none" xmlns="http://www.w3.org/2000/svg">
<path d="M22.6404 29.9545L13.8473 29.7918C11.0002 29.7351 8.14611 29.8483 5.35489 29.2609C1.10881 28.3833 0.808007 24.0804 0.493244 20.4711C0.0595324 15.3968 0.227435 10.2305 1.0459 5.19855C1.50796 2.37512 3.32632 0.690359 6.13836 0.507025C15.6311 -0.15832 25.1869 -0.0794697 34.6586 0.230938C35.6589 0.259394 36.6661 0.414923 37.6525 0.591958C42.5214 1.45541 42.6401 6.33157 42.9558 10.4364C43.2705 14.5835 43.1376 18.752 42.536 22.8709C42.0533 26.2813 41.1299 29.1412 37.2327 29.4173C32.3498 29.7783 27.579 30.069 22.6823 29.9764C22.6825 29.9545 22.6544 29.9545 22.6404 29.9545ZM17.4709 21.3204C21.1506 19.183 24.76 17.0811 28.4187 14.958C24.7321 12.8206 21.1295 10.7188 17.4709 8.59565V21.3204Z" fill="white"/>
</svg>
